<?xml version="1.0" encoding="utf-8"?>
<!-- Generator: Adobe Illustrator 21.0.0, SVG Export Plug-In . SVG Version: 6.00 Build 0)  -->
<svg version="1.1" id="Camera" xmlns="http://www.w3.org/2000/svg" xmlns:xlink="http://www.w3.org/1999/xlink" x="0px" y="0px"
	 viewBox="0 0 20 20" style="enable-background:new 0 0 20 20;" xml:space="preserve">
<style type="text/css">
	.st0{fill:#F9F9F9;}
</style>
<path class="st0" d="M10,8c-1.7,0-3,1.3-3,3s1.3,3,3,3c1.7,0,3-1.3,3-3S11.7,8,10,8z M18,5h-2.4c-0.3,0-0.7-0.3-0.8-0.6l-0.6-1.9
	C14.1,2.3,13.7,2,13.4,2H6.6C6.3,2,5.9,2.3,5.8,2.6L5.2,4.4C5.1,4.7,4.7,5,4.4,5H2C0.9,5,0,5.9,0,7v9c0,1.1,0.9,2,2,2h16
	c1.1,0,2-0.9,2-2V7C20,5.9,19.1,5,18,5z M10,16c-2.8,0-5-2.2-5-5s2.2-5,5-5c2.8,0,5,2.2,5,5S12.8,16,10,16z M17.5,8.2
	c-0.4,0-0.7-0.3-0.7-0.7c0-0.4,0.3-0.7,0.7-0.7s0.7,0.3,0.7,0.7C18.2,7.9,17.9,8.2,17.5,8.2z"/>
</svg>
