<?xml version="1.0" encoding="utf-8"?>
<!-- Generator: Adobe Illustrator 21.0.0, SVG Export Plug-In . SVG Version: 6.00 Build 0)  -->
<svg version="1.1" id="Circular_graph" xmlns="http://www.w3.org/2000/svg" xmlns:xlink="http://www.w3.org/1999/xlink" x="0px"
	 y="0px" viewBox="0 0 20 20" style="enable-background:new 0 0 20 20;" xml:space="preserve">
<style type="text/css">
	.st0{fill:#F9F9F9;}
</style>
<path class="st0" d="M17.6,9.4h2c-0.1-1-0.3-2.1-0.7-3l-1.8,1C17.4,8,17.5,8.7,17.6,9.4z M14.1,1.3c-1-0.5-2-0.8-3.1-0.9v2
	c0.7,0.1,1.4,0.3,2.1,0.6L14.1,1.3z M16.2,5.6l1.7-1c-0.6-0.9-1.3-1.6-2.2-2.3l-1,1.7C15.4,4.5,15.8,5,16.2,5.6z M10,17.6
	c-4.2,0-7.6-3.4-7.6-7.6c0-3.9,2.9-7,6.6-7.5v-2C4.2,0.9,0.4,5,0.4,10c0,5.3,4.3,9.6,9.6,9.6c4.8,0,8.8-3.6,9.5-8.2h-2
	C16.8,14.9,13.7,17.6,10,17.6z"/>
</svg>
